<mxfile host="Electron" agent="Mozilla/5.0 (Macintosh; Intel Mac OS X 10_15_7) AppleWebKit/537.36 (KHTML, like Gecko) draw.io/24.7.5 Chrome/126.0.6478.183 Electron/31.3.0 Safari/537.36" version="24.7.5">
  <diagram name="Page-1" id="VLJDBwGc8tw-kBL-8N2p">
    <mxGraphModel dx="3056" dy="5038" grid="1" gridSize="10" guides="1" tooltips="1" connect="1" arrows="1" fold="1" page="1" pageScale="1" pageWidth="827" pageHeight="1169" math="0" shadow="0">
      <root>
        <mxCell id="0" />
        <mxCell id="1" parent="0" />
        <mxCell id="Ik9ewdWdRUqbu1oUwg7v-150" value="&lt;h1 style=&quot;margin-top: 0px; margin-bottom: 0px;&quot;&gt;&lt;br&gt;&lt;/h1&gt;" style="rounded=0;whiteSpace=wrap;html=1;fillColor=#fff2cc;strokeColor=#d6b656;" parent="1" vertex="1">
          <mxGeometry x="-670" y="-3180" width="839" height="680" as="geometry" />
        </mxCell>
        <mxCell id="NKPftJdkQbe8e6-rR411-37" value="" style="verticalLabelPosition=middle;verticalAlign=middle;html=1;shape=mxgraph.infographic.cylinder;fillColor=#13aab5;strokeColor=none;shadow=0;align=left;labelPosition=right;spacingLeft=10;fontStyle=1;fontColor=#13aab5;labelBorderColor=none;" vertex="1" parent="1">
          <mxGeometry x="-441.71000000000004" y="-2822.5" width="175" height="42.5" as="geometry" />
        </mxCell>
        <mxCell id="Ik9ewdWdRUqbu1oUwg7v-184" value="" style="verticalLabelPosition=middle;verticalAlign=middle;html=1;shape=mxgraph.infographic.cylinder;fillColor=#12AAB5;strokeColor=none;shadow=0;align=left;labelPosition=right;spacingLeft=10;fontStyle=1;fontColor=#12AAB5;" parent="1" vertex="1">
          <mxGeometry x="-130" y="-2797.5" width="236" height="257.5" as="geometry" />
        </mxCell>
        <mxCell id="Ik9ewdWdRUqbu1oUwg7v-175" value="" style="rounded=0;whiteSpace=wrap;html=1;fillColor=#f8cecc;strokeColor=#b85450;" parent="1" vertex="1">
          <mxGeometry x="440" y="-1660" width="840" height="380" as="geometry" />
        </mxCell>
        <mxCell id="Ik9ewdWdRUqbu1oUwg7v-148" value="" style="rounded=0;whiteSpace=wrap;html=1;fillColor=#dae8fc;strokeColor=#6c8ebf;" parent="1" vertex="1">
          <mxGeometry x="429.95" y="-3178.75" width="850.05" height="1327" as="geometry" />
        </mxCell>
        <mxCell id="Ik9ewdWdRUqbu1oUwg7v-74" value="&lt;h1 style=&quot;margin-top: 0px; margin-bottom: 0px;&quot;&gt;&lt;br&gt;&lt;/h1&gt;" style="rounded=0;whiteSpace=wrap;html=1;fillColor=#ffe6cc;strokeColor=#d79b00;" parent="1" vertex="1">
          <mxGeometry x="-670" y="-2414.75" width="810" height="555" as="geometry" />
        </mxCell>
        <mxCell id="Ik9ewdWdRUqbu1oUwg7v-53" value="Sentence 1&lt;div style=&quot;font-size: 25px;&quot;&gt;from Report 1&lt;/div&gt;" style="html=1;shape=mxgraph.infographic.ribbonSimple;notch1=20;notch2=20;fillColor=#10739E;strokeColor=none;align=center;verticalAlign=middle;fontColor=#ffffff;fontSize=25;fontStyle=1;" parent="1" vertex="1">
          <mxGeometry x="485.44" y="-3021.75" width="210" height="82.25" as="geometry" />
        </mxCell>
        <mxCell id="Ik9ewdWdRUqbu1oUwg7v-149" value="Sentence similarity assessment between each sentence across the single corporate report and each sentence from SDGs" style="text;html=1;align=center;verticalAlign=top;whiteSpace=wrap;rounded=0;fontSize=25;horizontal=1;" parent="1" vertex="1">
          <mxGeometry x="455.44" y="-3161.75" width="715" height="80" as="geometry" />
        </mxCell>
        <mxCell id="Ik9ewdWdRUqbu1oUwg7v-155" value="" style="edgeStyle=orthogonalEdgeStyle;rounded=0;orthogonalLoop=1;jettySize=auto;html=1;curved=0;" parent="1" source="Ik9ewdWdRUqbu1oUwg7v-156" target="Ik9ewdWdRUqbu1oUwg7v-162" edge="1">
          <mxGeometry relative="1" as="geometry" />
        </mxCell>
        <mxCell id="Ik9ewdWdRUqbu1oUwg7v-162" value="" style="verticalLabelPosition=middle;verticalAlign=middle;html=1;shape=mxgraph.infographic.cylinder;fillColor=#10739E;strokeColor=none;shadow=0;align=left;labelPosition=right;spacingLeft=10;fontStyle=1;fontColor=#10739E;" parent="1" vertex="1">
          <mxGeometry x="-130" y="-3150" width="236" height="262.5" as="geometry" />
        </mxCell>
        <mxCell id="Ik9ewdWdRUqbu1oUwg7v-164" value="&lt;font style=&quot;font-size: 25px;&quot;&gt;&lt;font color=&quot;#10739E&quot; style=&quot;font-size: 25px;&quot;&gt;&lt;b style=&quot;font-size: 25px;&quot;&gt;Sentence 1&lt;/b&gt;&lt;/font&gt;&lt;br style=&quot;font-size: 25px;&quot;&gt;&lt;/font&gt;&lt;div style=&quot;font-size: 25px;&quot;&gt;&lt;font style=&quot;font-size: 25px;&quot;&gt;&lt;font color=&quot;#10739E&quot; style=&quot;font-size: 25px;&quot;&gt;&lt;b style=&quot;font-size: 25px;&quot;&gt;Sentence 2&lt;/b&gt;&lt;/font&gt;&lt;/font&gt;&lt;/div&gt;&lt;div style=&quot;font-size: 25px;&quot;&gt;&lt;font style=&quot;font-size: 25px;&quot;&gt;&lt;font color=&quot;#10739E&quot; style=&quot;font-size: 25px;&quot;&gt;&lt;b style=&quot;font-size: 25px;&quot;&gt;Sentence 3&lt;/b&gt;&lt;/font&gt;&lt;/font&gt;&lt;/div&gt;&lt;div style=&quot;font-size: 25px;&quot;&gt;&lt;font style=&quot;font-size: 25px;&quot;&gt;&lt;font color=&quot;#10739E&quot; style=&quot;font-size: 25px;&quot;&gt;&lt;b style=&quot;font-size: 25px;&quot;&gt;...&lt;/b&gt;&lt;/font&gt;&lt;/font&gt;&lt;/div&gt;&lt;div style=&quot;font-size: 25px;&quot;&gt;&lt;font style=&quot;font-size: 25px;&quot;&gt;&lt;font color=&quot;#10739E&quot; style=&quot;font-size: 25px;&quot;&gt;&lt;b style=&quot;font-size: 25px;&quot;&gt;Sentence j&lt;/b&gt;&lt;/font&gt;&lt;/font&gt;&lt;/div&gt;" style="rounded=1;strokeColor=none;fillColor=#EEEEEE;align=center;arcSize=12;verticalAlign=middle;whiteSpace=wrap;html=1;fontSize=25;" parent="1" vertex="1">
          <mxGeometry x="-117.5" y="-3096.25" width="211" height="172.5" as="geometry" />
        </mxCell>
        <mxCell id="Ik9ewdWdRUqbu1oUwg7v-176" value="Sentence similarity of the single corporate report across 17 SDGs obtained by averaging the similarity scores across every sentence&amp;nbsp;" style="text;html=1;align=center;verticalAlign=middle;whiteSpace=wrap;rounded=0;fontSize=25;horizontal=1;" parent="1" vertex="1">
          <mxGeometry x="450" y="-1680" width="783.71" height="140" as="geometry" />
        </mxCell>
        <mxCell id="Ik9ewdWdRUqbu1oUwg7v-183" value="&lt;font style=&quot;font-size: 25px;&quot;&gt;&lt;font color=&quot;#10739E&quot; style=&quot;font-size: 25px;&quot;&gt;&lt;b style=&quot;font-size: 25px;&quot;&gt;Sentence 1&lt;/b&gt;&lt;/font&gt;&lt;br style=&quot;font-size: 25px;&quot;&gt;&lt;/font&gt;&lt;div style=&quot;font-size: 25px;&quot;&gt;&lt;font style=&quot;font-size: 25px;&quot;&gt;&lt;font color=&quot;#10739E&quot; style=&quot;font-size: 25px;&quot;&gt;&lt;b style=&quot;font-size: 25px;&quot;&gt;Sentence 2&lt;/b&gt;&lt;/font&gt;&lt;/font&gt;&lt;/div&gt;&lt;div style=&quot;font-size: 25px;&quot;&gt;&lt;font style=&quot;font-size: 25px;&quot;&gt;&lt;font color=&quot;#10739E&quot; style=&quot;font-size: 25px;&quot;&gt;&lt;b style=&quot;font-size: 25px;&quot;&gt;Sentence 3&lt;/b&gt;&lt;/font&gt;&lt;/font&gt;&lt;/div&gt;&lt;div style=&quot;font-size: 25px;&quot;&gt;&lt;font style=&quot;font-size: 25px;&quot;&gt;&lt;font color=&quot;#10739E&quot; style=&quot;font-size: 25px;&quot;&gt;&lt;b style=&quot;font-size: 25px;&quot;&gt;...&lt;/b&gt;&lt;/font&gt;&lt;/font&gt;&lt;/div&gt;&lt;div style=&quot;font-size: 25px;&quot;&gt;&lt;font style=&quot;font-size: 25px;&quot;&gt;&lt;font color=&quot;#10739E&quot; style=&quot;font-size: 25px;&quot;&gt;&lt;b style=&quot;font-size: 25px;&quot;&gt;Sentence j&lt;/b&gt;&lt;/font&gt;&lt;/font&gt;&lt;/div&gt;" style="rounded=1;strokeColor=none;fillColor=#EEEEEE;align=center;arcSize=12;verticalAlign=middle;whiteSpace=wrap;html=1;fontSize=25;" parent="1" vertex="1">
          <mxGeometry x="-107.5" y="-2760" width="191" height="177.5" as="geometry" />
        </mxCell>
        <mxCell id="Ik9ewdWdRUqbu1oUwg7v-188" value="" style="verticalLabelPosition=bottom;verticalAlign=top;html=1;strokeWidth=2;shape=mxgraph.arrows2.arrow;dy=0.6;dx=40;notch=0;rotation=0;fillColor=#f5f5f5;strokeColor=#666666;fontColor=#333333;" parent="1" vertex="1">
          <mxGeometry x="200" y="-2230.75" width="157.14" height="110" as="geometry" />
        </mxCell>
        <mxCell id="Ik9ewdWdRUqbu1oUwg7v-202" value="" style="rounded=0;whiteSpace=wrap;html=1;fillColor=#e1d5e7;strokeColor=#9673a6;" parent="1" vertex="1">
          <mxGeometry x="364.35" y="-1090" width="1050" height="1110" as="geometry" />
        </mxCell>
        <mxCell id="Ik9ewdWdRUqbu1oUwg7v-213" value="The sentence similarity score for each sub-category was obtained by averaging the corresponding SDGs" style="text;html=1;align=center;verticalAlign=top;whiteSpace=wrap;rounded=0;fontSize=25;horizontal=1;" parent="1" vertex="1">
          <mxGeometry x="554.2799999999999" y="-1028" width="670.14" height="84.71" as="geometry" />
        </mxCell>
        <mxCell id="Ik9ewdWdRUqbu1oUwg7v-214" value="&lt;span style=&quot;background-color: initial; font-size: 25px;&quot;&gt;SDG 4&lt;/span&gt;&lt;div style=&quot;font-size: 25px;&quot;&gt;&lt;span style=&quot;background-color: initial; font-size: 25px;&quot;&gt;SDG 5&lt;/span&gt;&lt;/div&gt;&lt;div style=&quot;font-size: 25px;&quot;&gt;&lt;span style=&quot;background-color: initial; font-size: 25px;&quot;&gt;SDG 10&lt;/span&gt;&lt;/div&gt;" style="html=1;shape=mxgraph.infographic.ribbonSimple;notch1=20;notch2=20;fillColor=#10739E;strokeColor=none;align=center;verticalAlign=middle;fontColor=#ffffff;fontSize=25;fontStyle=1;" parent="1" vertex="1">
          <mxGeometry x="545.13" y="-868.71" width="168" height="101.75" as="geometry" />
        </mxCell>
        <mxCell id="LRJ8IiyVK398bqY5xaQa-2" value="" style="verticalLabelPosition=bottom;verticalAlign=top;html=1;strokeWidth=2;shape=mxgraph.arrows2.arrow;dy=0.6;dx=40;notch=0;rotation=90;fillColor=#f5f5f5;strokeColor=#666666;fontColor=#333333;" parent="1" vertex="1">
          <mxGeometry x="810.78" y="-1248.75" width="157.14" height="110" as="geometry" />
        </mxCell>
        <mxCell id="NKPftJdkQbe8e6-rR411-28" value="&lt;span style=&quot;color: rgb(16, 115, 158); font-size: 25px; font-weight: 700; text-align: left; text-wrap: nowrap;&quot;&gt;SDG 1&lt;/span&gt;" style="whiteSpace=wrap;html=1;shape=partialRectangle;top=0;left=0;bottom=1;right=0;points=[[0,1],[1,1]];fillColor=none;align=center;verticalAlign=middle;routingCenterY=0.5;snapToPoint=1;recursiveResize=0;autosize=1;treeFolding=1;treeMoving=1;newEdgeStyle={&quot;edgeStyle&quot;:&quot;entityRelationEdgeStyle&quot;,&quot;startArrow&quot;:&quot;none&quot;,&quot;endArrow&quot;:&quot;none&quot;,&quot;segment&quot;:10,&quot;curved&quot;:1,&quot;sourcePerimeterSpacing&quot;:0,&quot;targetPerimeterSpacing&quot;:0};labelPosition=center;verticalLabelPosition=middle;fontSize=25;" vertex="1" parent="1">
          <mxGeometry x="-641" y="-3070" width="120" height="40" as="geometry" />
        </mxCell>
        <mxCell id="NKPftJdkQbe8e6-rR411-29" value="" style="edgeStyle=entityRelationEdgeStyle;startArrow=none;endArrow=none;segment=10;curved=0;sourcePerimeterSpacing=0;targetPerimeterSpacing=0;rounded=0;exitX=0;exitY=0;exitDx=0;exitDy=15.625;exitPerimeter=0;" edge="1" target="NKPftJdkQbe8e6-rR411-28" parent="1" source="NKPftJdkQbe8e6-rR411-45">
          <mxGeometry relative="1" as="geometry">
            <mxPoint x="-726" y="-3160" as="sourcePoint" />
            <Array as="points">
              <mxPoint x="-441" y="-2960" />
              <mxPoint x="-441" y="-2950" />
              <mxPoint x="-441" y="-2920" />
            </Array>
          </mxGeometry>
        </mxCell>
        <mxCell id="NKPftJdkQbe8e6-rR411-31" value="&lt;span style=&quot;color: rgb(242, 147, 30); font-size: 25px; font-weight: 700; text-align: left; text-wrap: nowrap;&quot;&gt;SDG 2&lt;/span&gt;" style="whiteSpace=wrap;html=1;shape=partialRectangle;top=0;left=0;bottom=1;right=0;points=[[0,1],[1,1]];fillColor=none;align=center;verticalAlign=top;routingCenterY=0.5;snapToPoint=1;recursiveResize=0;autosize=1;treeFolding=1;treeMoving=1;newEdgeStyle={&quot;edgeStyle&quot;:&quot;entityRelationEdgeStyle&quot;,&quot;startArrow&quot;:&quot;none&quot;,&quot;endArrow&quot;:&quot;none&quot;,&quot;segment&quot;:10,&quot;curved&quot;:1,&quot;sourcePerimeterSpacing&quot;:0,&quot;targetPerimeterSpacing&quot;:0};fontSize=25;" vertex="1" parent="1">
          <mxGeometry x="-641" y="-2985" width="120" height="40" as="geometry" />
        </mxCell>
        <mxCell id="NKPftJdkQbe8e6-rR411-32" value="" style="edgeStyle=entityRelationEdgeStyle;startArrow=none;endArrow=none;segment=10;curved=0;sourcePerimeterSpacing=0;targetPerimeterSpacing=0;rounded=0;exitX=0;exitY=0;exitDx=0;exitDy=15.625;exitPerimeter=0;" edge="1" parent="1" target="NKPftJdkQbe8e6-rR411-31" source="Ik9ewdWdRUqbu1oUwg7v-156">
          <mxGeometry relative="1" as="geometry">
            <mxPoint x="-757" y="-2970" as="sourcePoint" />
          </mxGeometry>
        </mxCell>
        <mxCell id="NKPftJdkQbe8e6-rR411-33" value="&lt;span style=&quot;color: rgb(18, 170, 181); font-weight: 700; text-align: left; text-wrap: nowrap;&quot;&gt;SDG 17&lt;/span&gt;" style="whiteSpace=wrap;html=1;shape=partialRectangle;top=0;left=0;bottom=1;right=0;points=[[0,1],[1,1]];fillColor=none;align=center;verticalAlign=top;routingCenterY=0.5;snapToPoint=1;recursiveResize=0;autosize=1;treeFolding=1;treeMoving=1;newEdgeStyle={&quot;edgeStyle&quot;:&quot;entityRelationEdgeStyle&quot;,&quot;startArrow&quot;:&quot;none&quot;,&quot;endArrow&quot;:&quot;none&quot;,&quot;segment&quot;:10,&quot;curved&quot;:1,&quot;sourcePerimeterSpacing&quot;:0,&quot;targetPerimeterSpacing&quot;:0};fontSize=25;" vertex="1" parent="1">
          <mxGeometry x="-651" y="-2760" width="130" height="40" as="geometry" />
        </mxCell>
        <mxCell id="NKPftJdkQbe8e6-rR411-34" value="" style="edgeStyle=entityRelationEdgeStyle;startArrow=none;endArrow=none;segment=10;curved=0;sourcePerimeterSpacing=0;targetPerimeterSpacing=0;rounded=0;exitX=0;exitY=0;exitDx=0;exitDy=26.875;exitPerimeter=0;" edge="1" parent="1" target="NKPftJdkQbe8e6-rR411-33" source="NKPftJdkQbe8e6-rR411-37">
          <mxGeometry relative="1" as="geometry">
            <mxPoint x="-742" y="-2832" as="sourcePoint" />
            <Array as="points">
              <mxPoint x="-481" y="-2800" />
              <mxPoint x="-441" y="-2800" />
            </Array>
          </mxGeometry>
        </mxCell>
        <mxCell id="NKPftJdkQbe8e6-rR411-36" value="" style="verticalLabelPosition=middle;verticalAlign=middle;html=1;shape=mxgraph.infographic.cylinder;fillColor=#23445d;strokeColor=none;shadow=0;align=left;labelPosition=right;spacingLeft=10;fontStyle=1;fontColor=#10739E;" vertex="1" parent="1">
          <mxGeometry x="-441" y="-2858" width="175" height="42.5" as="geometry" />
        </mxCell>
        <mxCell id="NKPftJdkQbe8e6-rR411-35" value="" style="verticalLabelPosition=middle;verticalAlign=middle;html=1;shape=mxgraph.infographic.cylinder;fillColor=#ae4132;strokeColor=none;shadow=0;align=left;labelPosition=right;spacingLeft=10;fontStyle=1;fontColor=#10739E;" vertex="1" parent="1">
          <mxGeometry x="-441" y="-2896.5" width="175" height="42.5" as="geometry" />
        </mxCell>
        <mxCell id="Ik9ewdWdRUqbu1oUwg7v-156" value="" style="verticalLabelPosition=middle;verticalAlign=middle;html=1;shape=mxgraph.infographic.cylinder;fillColor=#f2921e;strokeColor=none;shadow=0;align=left;labelPosition=right;spacingLeft=10;fontStyle=1;fontColor=#10739E;" parent="1" vertex="1">
          <mxGeometry x="-441" y="-2934" width="175" height="42.5" as="geometry" />
        </mxCell>
        <mxCell id="NKPftJdkQbe8e6-rR411-41" value="&lt;span style=&quot;color: rgb(16, 115, 158); font-size: 25px; font-weight: 700; text-align: left; text-wrap: nowrap;&quot;&gt;...&lt;/span&gt;" style="whiteSpace=wrap;html=1;shape=partialRectangle;top=0;left=0;bottom=1;right=0;points=[[0,1],[1,1]];fillColor=none;align=center;verticalAlign=middle;routingCenterY=0.5;snapToPoint=1;recursiveResize=0;autosize=1;treeFolding=1;treeMoving=1;newEdgeStyle={&quot;edgeStyle&quot;:&quot;entityRelationEdgeStyle&quot;,&quot;startArrow&quot;:&quot;none&quot;,&quot;endArrow&quot;:&quot;none&quot;,&quot;segment&quot;:10,&quot;curved&quot;:1,&quot;sourcePerimeterSpacing&quot;:0,&quot;targetPerimeterSpacing&quot;:0};labelPosition=center;verticalLabelPosition=middle;fontSize=25;" vertex="1" parent="1">
          <mxGeometry x="-616" y="-2840" width="60" height="40" as="geometry" />
        </mxCell>
        <mxCell id="NKPftJdkQbe8e6-rR411-42" value="" style="edgeStyle=entityRelationEdgeStyle;startArrow=none;endArrow=none;segment=10;curved=0;sourcePerimeterSpacing=0;targetPerimeterSpacing=0;rounded=0;exitX=0;exitY=0;exitDx=0;exitDy=21.25;exitPerimeter=0;" edge="1" parent="1" target="NKPftJdkQbe8e6-rR411-41" source="NKPftJdkQbe8e6-rR411-36">
          <mxGeometry relative="1" as="geometry">
            <mxPoint x="-441" y="-2702" as="sourcePoint" />
            <Array as="points">
              <mxPoint x="-441" y="-2840" />
              <mxPoint x="-441" y="-2702" />
            </Array>
          </mxGeometry>
        </mxCell>
        <mxCell id="NKPftJdkQbe8e6-rR411-44" style="edgeStyle=orthogonalEdgeStyle;rounded=0;orthogonalLoop=1;jettySize=auto;html=1;entryX=0;entryY=0;entryDx=0;entryDy=128.75;entryPerimeter=0;curved=0;" edge="1" parent="1" source="NKPftJdkQbe8e6-rR411-37" target="Ik9ewdWdRUqbu1oUwg7v-184">
          <mxGeometry relative="1" as="geometry" />
        </mxCell>
        <mxCell id="NKPftJdkQbe8e6-rR411-45" value="" style="verticalLabelPosition=middle;verticalAlign=middle;html=1;shape=mxgraph.infographic.cylinder;fillColor=#10739E;strokeColor=none;shadow=0;align=left;labelPosition=right;spacingLeft=10;fontStyle=1;fontColor=#10739E;" vertex="1" parent="1">
          <mxGeometry x="-441.71000000000004" y="-2970.25" width="175" height="42.5" as="geometry" />
        </mxCell>
        <mxCell id="NKPftJdkQbe8e6-rR411-46" value="&lt;span style=&quot;font-size: 25px; font-weight: 700; text-align: left; text-wrap: nowrap;&quot;&gt;SDG 3&lt;/span&gt;" style="whiteSpace=wrap;html=1;shape=partialRectangle;top=0;left=0;bottom=1;right=0;points=[[0,1],[1,1]];fillColor=none;align=center;verticalAlign=top;routingCenterY=0.5;snapToPoint=1;recursiveResize=0;autosize=1;treeFolding=1;treeMoving=1;newEdgeStyle={&quot;edgeStyle&quot;:&quot;entityRelationEdgeStyle&quot;,&quot;startArrow&quot;:&quot;none&quot;,&quot;endArrow&quot;:&quot;none&quot;,&quot;segment&quot;:10,&quot;curved&quot;:1,&quot;sourcePerimeterSpacing&quot;:0,&quot;targetPerimeterSpacing&quot;:0};fontSize=25;fontColor=#ae4132;" vertex="1" parent="1">
          <mxGeometry x="-642" y="-2908.75" width="120" height="40" as="geometry" />
        </mxCell>
        <mxCell id="NKPftJdkQbe8e6-rR411-47" value="" style="edgeStyle=entityRelationEdgeStyle;startArrow=none;endArrow=none;segment=10;curved=0;sourcePerimeterSpacing=0;targetPerimeterSpacing=0;rounded=0;exitX=0;exitY=0;exitDx=0;exitDy=15.625;exitPerimeter=0;" edge="1" parent="1" target="NKPftJdkQbe8e6-rR411-46" source="NKPftJdkQbe8e6-rR411-35">
          <mxGeometry relative="1" as="geometry">
            <mxPoint x="-442" y="-2841.75" as="sourcePoint" />
          </mxGeometry>
        </mxCell>
        <mxCell id="NKPftJdkQbe8e6-rR411-49" value="" style="verticalLabelPosition=middle;verticalAlign=middle;html=1;shape=mxgraph.infographic.cylinder;fillColor=#13aab5;strokeColor=none;shadow=0;align=left;labelPosition=right;spacingLeft=10;fontStyle=1;fontColor=#13aab5;labelBorderColor=none;" vertex="1" parent="1">
          <mxGeometry x="-431.71000000000004" y="-2032.25" width="175" height="42.5" as="geometry" />
        </mxCell>
        <mxCell id="NKPftJdkQbe8e6-rR411-51" value="" style="edgeStyle=orthogonalEdgeStyle;rounded=0;orthogonalLoop=1;jettySize=auto;html=1;curved=0;exitX=0;exitY=0;exitDx=175;exitDy=21.25;exitPerimeter=0;" edge="1" parent="1" source="NKPftJdkQbe8e6-rR411-67" target="NKPftJdkQbe8e6-rR411-52">
          <mxGeometry relative="1" as="geometry" />
        </mxCell>
        <mxCell id="NKPftJdkQbe8e6-rR411-52" value="" style="verticalLabelPosition=middle;verticalAlign=middle;html=1;shape=mxgraph.infographic.cylinder;fillColor=#10739E;strokeColor=none;shadow=0;align=left;labelPosition=right;spacingLeft=10;fontStyle=1;fontColor=#10739E;" vertex="1" parent="1">
          <mxGeometry x="-120" y="-2359.75" width="236" height="262.5" as="geometry" />
        </mxCell>
        <mxCell id="NKPftJdkQbe8e6-rR411-53" value="&lt;font style=&quot;font-size: 25px;&quot;&gt;&lt;font color=&quot;#10739E&quot; style=&quot;font-size: 25px;&quot;&gt;&lt;b style=&quot;font-size: 25px;&quot;&gt;Sentence 1&lt;/b&gt;&lt;/font&gt;&lt;br style=&quot;font-size: 25px;&quot;&gt;&lt;/font&gt;&lt;div style=&quot;font-size: 25px;&quot;&gt;&lt;font style=&quot;font-size: 25px;&quot;&gt;&lt;font color=&quot;#10739E&quot; style=&quot;font-size: 25px;&quot;&gt;&lt;b style=&quot;font-size: 25px;&quot;&gt;Sentence 2&lt;/b&gt;&lt;/font&gt;&lt;/font&gt;&lt;/div&gt;&lt;div style=&quot;font-size: 25px;&quot;&gt;&lt;font style=&quot;font-size: 25px;&quot;&gt;&lt;font color=&quot;#10739E&quot; style=&quot;font-size: 25px;&quot;&gt;&lt;b style=&quot;font-size: 25px;&quot;&gt;Sentence 3&lt;/b&gt;&lt;/font&gt;&lt;/font&gt;&lt;/div&gt;&lt;div style=&quot;font-size: 25px;&quot;&gt;&lt;font style=&quot;font-size: 25px;&quot;&gt;&lt;font color=&quot;#10739E&quot; style=&quot;font-size: 25px;&quot;&gt;&lt;b style=&quot;font-size: 25px;&quot;&gt;...&lt;/b&gt;&lt;/font&gt;&lt;/font&gt;&lt;/div&gt;&lt;div style=&quot;font-size: 25px;&quot;&gt;&lt;font style=&quot;font-size: 25px;&quot;&gt;&lt;font color=&quot;#10739E&quot; style=&quot;font-size: 25px;&quot;&gt;&lt;b style=&quot;font-size: 25px;&quot;&gt;Sentence i&lt;/b&gt;&lt;/font&gt;&lt;/font&gt;&lt;/div&gt;" style="rounded=1;strokeColor=none;fillColor=#EEEEEE;align=center;arcSize=12;verticalAlign=middle;whiteSpace=wrap;html=1;fontSize=25;" vertex="1" parent="1">
          <mxGeometry x="-107.5" y="-2306" width="211" height="172.5" as="geometry" />
        </mxCell>
        <mxCell id="NKPftJdkQbe8e6-rR411-55" value="&lt;span style=&quot;color: rgb(16, 115, 158); font-size: 25px; font-weight: 700; text-align: left; text-wrap: nowrap;&quot;&gt;Report 1&lt;/span&gt;" style="whiteSpace=wrap;html=1;shape=partialRectangle;top=0;left=0;bottom=1;right=0;points=[[0,1],[1,1]];fillColor=none;align=center;verticalAlign=middle;routingCenterY=0.5;snapToPoint=1;recursiveResize=0;autosize=1;treeFolding=1;treeMoving=1;newEdgeStyle={&quot;edgeStyle&quot;:&quot;entityRelationEdgeStyle&quot;,&quot;startArrow&quot;:&quot;none&quot;,&quot;endArrow&quot;:&quot;none&quot;,&quot;segment&quot;:10,&quot;curved&quot;:1,&quot;sourcePerimeterSpacing&quot;:0,&quot;targetPerimeterSpacing&quot;:0};labelPosition=center;verticalLabelPosition=middle;fontSize=25;" vertex="1" parent="1">
          <mxGeometry x="-641" y="-2279.75" width="140" height="40" as="geometry" />
        </mxCell>
        <mxCell id="NKPftJdkQbe8e6-rR411-56" value="" style="edgeStyle=entityRelationEdgeStyle;startArrow=none;endArrow=none;segment=10;curved=0;sourcePerimeterSpacing=0;targetPerimeterSpacing=0;rounded=0;exitX=0;exitY=0;exitDx=0;exitDy=15.625;exitPerimeter=0;" edge="1" parent="1" source="NKPftJdkQbe8e6-rR411-67" target="NKPftJdkQbe8e6-rR411-55">
          <mxGeometry relative="1" as="geometry">
            <mxPoint x="-716" y="-2369.75" as="sourcePoint" />
            <Array as="points">
              <mxPoint x="-431" y="-2169.75" />
              <mxPoint x="-431" y="-2159.75" />
              <mxPoint x="-431" y="-2129.75" />
            </Array>
          </mxGeometry>
        </mxCell>
        <mxCell id="NKPftJdkQbe8e6-rR411-57" value="&lt;span style=&quot;color: rgb(242, 147, 30); font-size: 25px; font-weight: 700; text-align: left; text-wrap: nowrap;&quot;&gt;Report 2&lt;/span&gt;" style="whiteSpace=wrap;html=1;shape=partialRectangle;top=0;left=0;bottom=1;right=0;points=[[0,1],[1,1]];fillColor=none;align=center;verticalAlign=top;routingCenterY=0.5;snapToPoint=1;recursiveResize=0;autosize=1;treeFolding=1;treeMoving=1;newEdgeStyle={&quot;edgeStyle&quot;:&quot;entityRelationEdgeStyle&quot;,&quot;startArrow&quot;:&quot;none&quot;,&quot;endArrow&quot;:&quot;none&quot;,&quot;segment&quot;:10,&quot;curved&quot;:1,&quot;sourcePerimeterSpacing&quot;:0,&quot;targetPerimeterSpacing&quot;:0};fontSize=25;" vertex="1" parent="1">
          <mxGeometry x="-641" y="-2194.75" width="140" height="40" as="geometry" />
        </mxCell>
        <mxCell id="NKPftJdkQbe8e6-rR411-58" value="" style="edgeStyle=entityRelationEdgeStyle;startArrow=none;endArrow=none;segment=10;curved=0;sourcePerimeterSpacing=0;targetPerimeterSpacing=0;rounded=0;exitX=0;exitY=0;exitDx=0;exitDy=15.625;exitPerimeter=0;" edge="1" parent="1" source="NKPftJdkQbe8e6-rR411-63" target="NKPftJdkQbe8e6-rR411-57">
          <mxGeometry relative="1" as="geometry">
            <mxPoint x="-747" y="-2179.75" as="sourcePoint" />
          </mxGeometry>
        </mxCell>
        <mxCell id="NKPftJdkQbe8e6-rR411-59" value="&lt;span style=&quot;color: rgb(18, 170, 181); font-weight: 700; text-align: left; text-wrap: nowrap;&quot;&gt;Report r&lt;/span&gt;" style="whiteSpace=wrap;html=1;shape=partialRectangle;top=0;left=0;bottom=1;right=0;points=[[0,1],[1,1]];fillColor=none;align=center;verticalAlign=top;routingCenterY=0.5;snapToPoint=1;recursiveResize=0;autosize=1;treeFolding=1;treeMoving=1;newEdgeStyle={&quot;edgeStyle&quot;:&quot;entityRelationEdgeStyle&quot;,&quot;startArrow&quot;:&quot;none&quot;,&quot;endArrow&quot;:&quot;none&quot;,&quot;segment&quot;:10,&quot;curved&quot;:1,&quot;sourcePerimeterSpacing&quot;:0,&quot;targetPerimeterSpacing&quot;:0};fontSize=25;" vertex="1" parent="1">
          <mxGeometry x="-646" y="-1969.75" width="140" height="40" as="geometry" />
        </mxCell>
        <mxCell id="NKPftJdkQbe8e6-rR411-60" value="" style="edgeStyle=entityRelationEdgeStyle;startArrow=none;endArrow=none;segment=10;curved=0;sourcePerimeterSpacing=0;targetPerimeterSpacing=0;rounded=0;exitX=0;exitY=0;exitDx=0;exitDy=26.875;exitPerimeter=0;" edge="1" parent="1" source="NKPftJdkQbe8e6-rR411-49" target="NKPftJdkQbe8e6-rR411-59">
          <mxGeometry relative="1" as="geometry">
            <mxPoint x="-732" y="-2041.75" as="sourcePoint" />
            <Array as="points">
              <mxPoint x="-471" y="-2009.75" />
              <mxPoint x="-431" y="-2009.75" />
            </Array>
          </mxGeometry>
        </mxCell>
        <mxCell id="NKPftJdkQbe8e6-rR411-61" value="" style="verticalLabelPosition=middle;verticalAlign=middle;html=1;shape=mxgraph.infographic.cylinder;fillColor=#23445d;strokeColor=none;shadow=0;align=left;labelPosition=right;spacingLeft=10;fontStyle=1;fontColor=#10739E;" vertex="1" parent="1">
          <mxGeometry x="-431" y="-2067.75" width="175" height="42.5" as="geometry" />
        </mxCell>
        <mxCell id="NKPftJdkQbe8e6-rR411-62" value="" style="verticalLabelPosition=middle;verticalAlign=middle;html=1;shape=mxgraph.infographic.cylinder;fillColor=#ae4132;strokeColor=none;shadow=0;align=left;labelPosition=right;spacingLeft=10;fontStyle=1;fontColor=#10739E;" vertex="1" parent="1">
          <mxGeometry x="-431" y="-2106.25" width="175" height="42.5" as="geometry" />
        </mxCell>
        <mxCell id="NKPftJdkQbe8e6-rR411-63" value="" style="verticalLabelPosition=middle;verticalAlign=middle;html=1;shape=mxgraph.infographic.cylinder;fillColor=#f2921e;strokeColor=none;shadow=0;align=left;labelPosition=right;spacingLeft=10;fontStyle=1;fontColor=#10739E;" vertex="1" parent="1">
          <mxGeometry x="-431" y="-2143.75" width="175" height="42.5" as="geometry" />
        </mxCell>
        <mxCell id="NKPftJdkQbe8e6-rR411-64" value="&lt;span style=&quot;color: rgb(16, 115, 158); font-size: 25px; font-weight: 700; text-align: left; text-wrap: nowrap;&quot;&gt;...&lt;/span&gt;" style="whiteSpace=wrap;html=1;shape=partialRectangle;top=0;left=0;bottom=1;right=0;points=[[0,1],[1,1]];fillColor=none;align=center;verticalAlign=middle;routingCenterY=0.5;snapToPoint=1;recursiveResize=0;autosize=1;treeFolding=1;treeMoving=1;newEdgeStyle={&quot;edgeStyle&quot;:&quot;entityRelationEdgeStyle&quot;,&quot;startArrow&quot;:&quot;none&quot;,&quot;endArrow&quot;:&quot;none&quot;,&quot;segment&quot;:10,&quot;curved&quot;:1,&quot;sourcePerimeterSpacing&quot;:0,&quot;targetPerimeterSpacing&quot;:0};labelPosition=center;verticalLabelPosition=middle;fontSize=25;" vertex="1" parent="1">
          <mxGeometry x="-606" y="-2049.75" width="60" height="40" as="geometry" />
        </mxCell>
        <mxCell id="NKPftJdkQbe8e6-rR411-65" value="" style="edgeStyle=entityRelationEdgeStyle;startArrow=none;endArrow=none;segment=10;curved=0;sourcePerimeterSpacing=0;targetPerimeterSpacing=0;rounded=0;exitX=0;exitY=0;exitDx=0;exitDy=21.25;exitPerimeter=0;" edge="1" parent="1" source="NKPftJdkQbe8e6-rR411-61" target="NKPftJdkQbe8e6-rR411-64">
          <mxGeometry relative="1" as="geometry">
            <mxPoint x="-431" y="-1911.75" as="sourcePoint" />
            <Array as="points">
              <mxPoint x="-431" y="-2049.75" />
              <mxPoint x="-431" y="-1911.75" />
            </Array>
          </mxGeometry>
        </mxCell>
        <mxCell id="NKPftJdkQbe8e6-rR411-67" value="" style="verticalLabelPosition=middle;verticalAlign=middle;html=1;shape=mxgraph.infographic.cylinder;fillColor=#10739E;strokeColor=none;shadow=0;align=left;labelPosition=right;spacingLeft=10;fontStyle=1;fontColor=#10739E;" vertex="1" parent="1">
          <mxGeometry x="-431.71000000000004" y="-2180" width="175" height="42.5" as="geometry" />
        </mxCell>
        <mxCell id="NKPftJdkQbe8e6-rR411-68" value="&lt;span style=&quot;font-size: 25px; font-weight: 700; text-align: left; text-wrap: nowrap;&quot;&gt;Report 3&lt;/span&gt;" style="whiteSpace=wrap;html=1;shape=partialRectangle;top=0;left=0;bottom=1;right=0;points=[[0,1],[1,1]];fillColor=none;align=center;verticalAlign=top;routingCenterY=0.5;snapToPoint=1;recursiveResize=0;autosize=1;treeFolding=1;treeMoving=1;newEdgeStyle={&quot;edgeStyle&quot;:&quot;entityRelationEdgeStyle&quot;,&quot;startArrow&quot;:&quot;none&quot;,&quot;endArrow&quot;:&quot;none&quot;,&quot;segment&quot;:10,&quot;curved&quot;:1,&quot;sourcePerimeterSpacing&quot;:0,&quot;targetPerimeterSpacing&quot;:0};fontSize=25;fontColor=#ae4132;" vertex="1" parent="1">
          <mxGeometry x="-642" y="-2118.5" width="140" height="40" as="geometry" />
        </mxCell>
        <mxCell id="NKPftJdkQbe8e6-rR411-69" value="" style="edgeStyle=entityRelationEdgeStyle;startArrow=none;endArrow=none;segment=10;curved=0;sourcePerimeterSpacing=0;targetPerimeterSpacing=0;rounded=0;exitX=0;exitY=0;exitDx=0;exitDy=15.625;exitPerimeter=0;" edge="1" parent="1" source="NKPftJdkQbe8e6-rR411-62" target="NKPftJdkQbe8e6-rR411-68">
          <mxGeometry relative="1" as="geometry">
            <mxPoint x="-432" y="-2051.5" as="sourcePoint" />
          </mxGeometry>
        </mxCell>
        <mxCell id="NKPftJdkQbe8e6-rR411-76" style="edgeStyle=entityRelationEdgeStyle;rounded=0;orthogonalLoop=1;jettySize=auto;html=1;startArrow=none;endArrow=none;segment=10;curved=0;sourcePerimeterSpacing=0;targetPerimeterSpacing=0;exitX=1;exitY=1;exitDx=0;exitDy=0;" edge="1" parent="1" source="NKPftJdkQbe8e6-rR411-74">
          <mxGeometry relative="1" as="geometry">
            <mxPoint x="-130" y="-2249.75" as="targetPoint" />
          </mxGeometry>
        </mxCell>
        <mxCell id="NKPftJdkQbe8e6-rR411-74" value="&lt;span style=&quot;color: rgb(16, 115, 158); font-size: 25px; font-weight: 700; text-align: left; text-wrap: nowrap;&quot;&gt;Report 1&lt;/span&gt;" style="whiteSpace=wrap;html=1;shape=partialRectangle;top=0;left=0;bottom=1;right=0;points=[[0,1],[1,1]];fillColor=none;align=center;verticalAlign=bottom;routingCenterY=0.5;snapToPoint=1;recursiveResize=0;autosize=1;treeFolding=1;treeMoving=1;newEdgeStyle={&quot;edgeStyle&quot;:&quot;entityRelationEdgeStyle&quot;,&quot;startArrow&quot;:&quot;none&quot;,&quot;endArrow&quot;:&quot;none&quot;,&quot;segment&quot;:10,&quot;curved&quot;:1,&quot;sourcePerimeterSpacing&quot;:0,&quot;targetPerimeterSpacing&quot;:0};" vertex="1" parent="1">
          <mxGeometry x="-330" y="-2346" width="140" height="40" as="geometry" />
        </mxCell>
        <mxCell id="NKPftJdkQbe8e6-rR411-82" value="&lt;font style=&quot;font-size: 25px;&quot;&gt;SDG 17&lt;/font&gt;" style="verticalLabelPosition=bottom;verticalAlign=top;html=1;shape=mxgraph.infographic.cylinder;isoAngle=15;fillColor=#12AAB5;strokeColor=none;fontStyle=1;fontColor=#12AAB5;fontSize=14;shadow=0;" vertex="1" parent="1">
          <mxGeometry x="1156.58" y="-2989.63" width="59.43" height="104" as="geometry" />
        </mxCell>
        <mxCell id="NKPftJdkQbe8e6-rR411-87" value="" style="verticalLabelPosition=top;verticalAlign=bottom;html=1;shape=mxgraph.infographic.cylinder;isoAngle=15;fillColor=#CCCCCC;strokeColor=none;fontStyle=1;fontColor=#12AAB5;fontSize=14;shadow=0;align=left;opacity=70;" vertex="1" parent="1">
          <mxGeometry x="1156.58" y="-3075.63" width="60.57" height="106" as="geometry" />
        </mxCell>
        <mxCell id="NKPftJdkQbe8e6-rR411-94" value="&lt;font style=&quot;font-size: 25px;&quot;&gt;...&lt;/font&gt;" style="verticalLabelPosition=bottom;verticalAlign=top;html=1;shape=mxgraph.infographic.cylinder;isoAngle=15;fillColor=#3d5060;strokeColor=none;fontStyle=1;fontColor=#4f5963;fontSize=14;shadow=0;" vertex="1" parent="1">
          <mxGeometry x="1036.58" y="-2946.88" width="59.43" height="60.25" as="geometry" />
        </mxCell>
        <mxCell id="NKPftJdkQbe8e6-rR411-95" value="" style="verticalLabelPosition=top;verticalAlign=bottom;html=1;shape=mxgraph.infographic.cylinder;isoAngle=15;fillColor=#CCCCCC;strokeColor=none;fontStyle=1;fontColor=#12AAB5;fontSize=14;shadow=0;align=left;opacity=70;" vertex="1" parent="1">
          <mxGeometry x="1036.58" y="-3076.63" width="60.57" height="149.75" as="geometry" />
        </mxCell>
        <mxCell id="NKPftJdkQbe8e6-rR411-96" value="&lt;font style=&quot;font-size: 25px;&quot;&gt;SDG 3&lt;/font&gt;" style="verticalLabelPosition=bottom;verticalAlign=top;html=1;shape=mxgraph.infographic.cylinder;isoAngle=15;fillColor=#945349;strokeColor=none;fontStyle=1;fontColor=#ad6c62;fontSize=14;shadow=0;" vertex="1" parent="1">
          <mxGeometry x="927.3" y="-3006.63" width="59.43" height="121" as="geometry" />
        </mxCell>
        <mxCell id="NKPftJdkQbe8e6-rR411-97" value="" style="verticalLabelPosition=top;verticalAlign=bottom;html=1;shape=mxgraph.infographic.cylinder;isoAngle=15;fillColor=#CCCCCC;strokeColor=none;fontStyle=1;fontColor=#12AAB5;fontSize=14;shadow=0;align=left;opacity=70;" vertex="1" parent="1">
          <mxGeometry x="927.3" y="-3075.63" width="60.57" height="89" as="geometry" />
        </mxCell>
        <mxCell id="NKPftJdkQbe8e6-rR411-98" value="&lt;font style=&quot;font-size: 25px;&quot;&gt;SDG 2&lt;/font&gt;" style="verticalLabelPosition=bottom;verticalAlign=top;html=1;shape=mxgraph.infographic.cylinder;isoAngle=15;fillColor=#ecb276;strokeColor=none;fontStyle=1;fontColor=#e3a96c;fontSize=25;shadow=0;" vertex="1" parent="1">
          <mxGeometry x="824.01" y="-3044.63" width="59.43" height="160" as="geometry" />
        </mxCell>
        <mxCell id="NKPftJdkQbe8e6-rR411-99" value="" style="verticalLabelPosition=top;verticalAlign=bottom;html=1;shape=mxgraph.infographic.cylinder;isoAngle=15;fillColor=#CCCCCC;strokeColor=none;fontStyle=1;fontColor=#12AAB5;fontSize=14;shadow=0;align=left;opacity=70;" vertex="1" parent="1">
          <mxGeometry x="824.01" y="-3074.63" width="60.57" height="50" as="geometry" />
        </mxCell>
        <mxCell id="NKPftJdkQbe8e6-rR411-102" value="&lt;font style=&quot;font-size: 25px;&quot;&gt;SDG 1&lt;/font&gt;" style="verticalLabelPosition=bottom;verticalAlign=top;html=1;shape=mxgraph.infographic.cylinder;isoAngle=15;fillColor=#5787a2;strokeColor=none;fontStyle=1;fontColor=#4d7d98;fontSize=14;shadow=0;" vertex="1" parent="1">
          <mxGeometry x="710.44" y="-3004.63" width="59.43" height="120" as="geometry" />
        </mxCell>
        <mxCell id="NKPftJdkQbe8e6-rR411-103" value="" style="verticalLabelPosition=top;verticalAlign=bottom;html=1;shape=mxgraph.infographic.cylinder;isoAngle=15;fillColor=#CCCCCC;strokeColor=none;fontStyle=1;fontColor=#12AAB5;fontSize=14;shadow=0;align=left;opacity=70;" vertex="1" parent="1">
          <mxGeometry x="710.44" y="-3074.63" width="60.57" height="90" as="geometry" />
        </mxCell>
        <mxCell id="NKPftJdkQbe8e6-rR411-104" value="Sentence 2&lt;div style=&quot;font-size: 25px;&quot;&gt;from Report 1&lt;/div&gt;" style="html=1;shape=mxgraph.infographic.ribbonSimple;notch1=20;notch2=20;fillColor=#10739E;strokeColor=none;align=center;verticalAlign=middle;fontColor=#ffffff;fontSize=25;fontStyle=1;" vertex="1" parent="1">
          <mxGeometry x="485.44" y="-2721.75" width="210" height="82.25" as="geometry" />
        </mxCell>
        <mxCell id="NKPftJdkQbe8e6-rR411-105" value="Sentence 3&lt;div style=&quot;font-size: 25px;&quot;&gt;from Report 1&lt;/div&gt;" style="html=1;shape=mxgraph.infographic.ribbonSimple;notch1=20;notch2=20;fillColor=#10739E;strokeColor=none;align=center;verticalAlign=middle;fontColor=#ffffff;fontSize=25;fontStyle=1;" vertex="1" parent="1">
          <mxGeometry x="478.72999999999996" y="-2449.75" width="210" height="82.25" as="geometry" />
        </mxCell>
        <mxCell id="NKPftJdkQbe8e6-rR411-106" value="..." style="html=1;shape=mxgraph.infographic.ribbonSimple;notch1=20;notch2=20;fillColor=#10739E;strokeColor=none;align=center;verticalAlign=middle;fontColor=#ffffff;fontSize=25;fontStyle=1;" vertex="1" parent="1">
          <mxGeometry x="473.16" y="-2241.75" width="210" height="82.25" as="geometry" />
        </mxCell>
        <mxCell id="NKPftJdkQbe8e6-rR411-107" value="Sentence i&lt;div&gt;&lt;span style=&quot;background-color: initial;&quot;&gt;from Report 1&lt;/span&gt;&lt;/div&gt;" style="html=1;shape=mxgraph.infographic.ribbonSimple;notch1=20;notch2=20;fillColor=#10739E;strokeColor=none;align=center;verticalAlign=middle;fontColor=#ffffff;fontSize=25;fontStyle=1;" vertex="1" parent="1">
          <mxGeometry x="465.4399999999999" y="-2029.75" width="210" height="82.25" as="geometry" />
        </mxCell>
        <mxCell id="NKPftJdkQbe8e6-rR411-108" value="&lt;font style=&quot;font-size: 25px;&quot;&gt;SDG 17&lt;/font&gt;" style="verticalLabelPosition=bottom;verticalAlign=top;html=1;shape=mxgraph.infographic.cylinder;isoAngle=15;fillColor=#12AAB5;strokeColor=none;fontStyle=1;fontColor=#12AAB5;fontSize=14;shadow=0;" vertex="1" parent="1">
          <mxGeometry x="1156.58" y="-2698.75" width="59.43" height="104" as="geometry" />
        </mxCell>
        <mxCell id="NKPftJdkQbe8e6-rR411-109" value="" style="verticalLabelPosition=top;verticalAlign=bottom;html=1;shape=mxgraph.infographic.cylinder;isoAngle=15;fillColor=#CCCCCC;strokeColor=none;fontStyle=1;fontColor=#12AAB5;fontSize=14;shadow=0;align=left;opacity=70;" vertex="1" parent="1">
          <mxGeometry x="1156.58" y="-2784.75" width="60.57" height="106" as="geometry" />
        </mxCell>
        <mxCell id="NKPftJdkQbe8e6-rR411-110" value="&lt;font style=&quot;font-size: 25px;&quot;&gt;...&lt;/font&gt;" style="verticalLabelPosition=bottom;verticalAlign=top;html=1;shape=mxgraph.infographic.cylinder;isoAngle=15;fillColor=#3d5060;strokeColor=none;fontStyle=1;fontColor=#4f5963;fontSize=14;shadow=0;" vertex="1" parent="1">
          <mxGeometry x="1036.58" y="-2656" width="59.43" height="60.25" as="geometry" />
        </mxCell>
        <mxCell id="NKPftJdkQbe8e6-rR411-111" value="" style="verticalLabelPosition=top;verticalAlign=bottom;html=1;shape=mxgraph.infographic.cylinder;isoAngle=15;fillColor=#CCCCCC;strokeColor=none;fontStyle=1;fontColor=#12AAB5;fontSize=14;shadow=0;align=left;opacity=70;" vertex="1" parent="1">
          <mxGeometry x="1036.58" y="-2785.75" width="60.57" height="149.75" as="geometry" />
        </mxCell>
        <mxCell id="NKPftJdkQbe8e6-rR411-112" value="&lt;font style=&quot;font-size: 25px;&quot;&gt;SDG 3&lt;/font&gt;" style="verticalLabelPosition=bottom;verticalAlign=top;html=1;shape=mxgraph.infographic.cylinder;isoAngle=15;fillColor=#945349;strokeColor=none;fontStyle=1;fontColor=#ad6c62;fontSize=14;shadow=0;" vertex="1" parent="1">
          <mxGeometry x="927.3" y="-2715.75" width="59.43" height="121" as="geometry" />
        </mxCell>
        <mxCell id="NKPftJdkQbe8e6-rR411-113" value="" style="verticalLabelPosition=top;verticalAlign=bottom;html=1;shape=mxgraph.infographic.cylinder;isoAngle=15;fillColor=#CCCCCC;strokeColor=none;fontStyle=1;fontColor=#12AAB5;fontSize=14;shadow=0;align=left;opacity=70;" vertex="1" parent="1">
          <mxGeometry x="927.3" y="-2784.75" width="60.57" height="89" as="geometry" />
        </mxCell>
        <mxCell id="NKPftJdkQbe8e6-rR411-114" value="&lt;font style=&quot;font-size: 25px;&quot;&gt;SDG 2&lt;/font&gt;" style="verticalLabelPosition=bottom;verticalAlign=top;html=1;shape=mxgraph.infographic.cylinder;isoAngle=15;fillColor=#ecb276;strokeColor=none;fontStyle=1;fontColor=#e3a96c;fontSize=25;shadow=0;" vertex="1" parent="1">
          <mxGeometry x="824.01" y="-2753.75" width="59.43" height="160" as="geometry" />
        </mxCell>
        <mxCell id="NKPftJdkQbe8e6-rR411-115" value="" style="verticalLabelPosition=top;verticalAlign=bottom;html=1;shape=mxgraph.infographic.cylinder;isoAngle=15;fillColor=#CCCCCC;strokeColor=none;fontStyle=1;fontColor=#12AAB5;fontSize=14;shadow=0;align=left;opacity=70;" vertex="1" parent="1">
          <mxGeometry x="824.01" y="-2783.75" width="60.57" height="50" as="geometry" />
        </mxCell>
        <mxCell id="NKPftJdkQbe8e6-rR411-116" value="&lt;font style=&quot;font-size: 25px;&quot;&gt;SDG 1&lt;/font&gt;" style="verticalLabelPosition=bottom;verticalAlign=top;html=1;shape=mxgraph.infographic.cylinder;isoAngle=15;fillColor=#5787a2;strokeColor=none;fontStyle=1;fontColor=#4d7d98;fontSize=14;shadow=0;" vertex="1" parent="1">
          <mxGeometry x="710.44" y="-2713.75" width="59.43" height="120" as="geometry" />
        </mxCell>
        <mxCell id="NKPftJdkQbe8e6-rR411-117" value="" style="verticalLabelPosition=top;verticalAlign=bottom;html=1;shape=mxgraph.infographic.cylinder;isoAngle=15;fillColor=#CCCCCC;strokeColor=none;fontStyle=1;fontColor=#12AAB5;fontSize=14;shadow=0;align=left;opacity=70;" vertex="1" parent="1">
          <mxGeometry x="710.44" y="-2783.75" width="60.57" height="90" as="geometry" />
        </mxCell>
        <mxCell id="NKPftJdkQbe8e6-rR411-118" value="&lt;font style=&quot;font-size: 25px;&quot;&gt;SDG 17&lt;/font&gt;" style="verticalLabelPosition=bottom;verticalAlign=top;html=1;shape=mxgraph.infographic.cylinder;isoAngle=15;fillColor=#12AAB5;strokeColor=none;fontStyle=1;fontColor=#12AAB5;fontSize=14;shadow=0;" vertex="1" parent="1">
          <mxGeometry x="1149.8" y="-2414.75" width="59.43" height="104" as="geometry" />
        </mxCell>
        <mxCell id="NKPftJdkQbe8e6-rR411-119" value="" style="verticalLabelPosition=top;verticalAlign=bottom;html=1;shape=mxgraph.infographic.cylinder;isoAngle=15;fillColor=#CCCCCC;strokeColor=none;fontStyle=1;fontColor=#12AAB5;fontSize=14;shadow=0;align=left;opacity=70;" vertex="1" parent="1">
          <mxGeometry x="1149.8" y="-2500.75" width="60.57" height="106" as="geometry" />
        </mxCell>
        <mxCell id="NKPftJdkQbe8e6-rR411-120" value="&lt;font style=&quot;font-size: 25px;&quot;&gt;...&lt;/font&gt;" style="verticalLabelPosition=bottom;verticalAlign=top;html=1;shape=mxgraph.infographic.cylinder;isoAngle=15;fillColor=#3d5060;strokeColor=none;fontStyle=1;fontColor=#4f5963;fontSize=14;shadow=0;" vertex="1" parent="1">
          <mxGeometry x="1029.8" y="-2372" width="59.43" height="60.25" as="geometry" />
        </mxCell>
        <mxCell id="NKPftJdkQbe8e6-rR411-121" value="" style="verticalLabelPosition=top;verticalAlign=bottom;html=1;shape=mxgraph.infographic.cylinder;isoAngle=15;fillColor=#CCCCCC;strokeColor=none;fontStyle=1;fontColor=#12AAB5;fontSize=14;shadow=0;align=left;opacity=70;" vertex="1" parent="1">
          <mxGeometry x="1029.8" y="-2501.75" width="60.57" height="149.75" as="geometry" />
        </mxCell>
        <mxCell id="NKPftJdkQbe8e6-rR411-122" value="&lt;font style=&quot;font-size: 25px;&quot;&gt;SDG 3&lt;/font&gt;" style="verticalLabelPosition=bottom;verticalAlign=top;html=1;shape=mxgraph.infographic.cylinder;isoAngle=15;fillColor=#945349;strokeColor=none;fontStyle=1;fontColor=#ad6c62;fontSize=14;shadow=0;" vertex="1" parent="1">
          <mxGeometry x="920.52" y="-2431.75" width="59.43" height="121" as="geometry" />
        </mxCell>
        <mxCell id="NKPftJdkQbe8e6-rR411-123" value="" style="verticalLabelPosition=top;verticalAlign=bottom;html=1;shape=mxgraph.infographic.cylinder;isoAngle=15;fillColor=#CCCCCC;strokeColor=none;fontStyle=1;fontColor=#12AAB5;fontSize=14;shadow=0;align=left;opacity=70;" vertex="1" parent="1">
          <mxGeometry x="920.52" y="-2500.75" width="60.57" height="89" as="geometry" />
        </mxCell>
        <mxCell id="NKPftJdkQbe8e6-rR411-124" value="&lt;font style=&quot;font-size: 25px;&quot;&gt;SDG 2&lt;/font&gt;" style="verticalLabelPosition=bottom;verticalAlign=top;html=1;shape=mxgraph.infographic.cylinder;isoAngle=15;fillColor=#ecb276;strokeColor=none;fontStyle=1;fontColor=#e3a96c;fontSize=25;shadow=0;" vertex="1" parent="1">
          <mxGeometry x="817.23" y="-2469.75" width="59.43" height="160" as="geometry" />
        </mxCell>
        <mxCell id="NKPftJdkQbe8e6-rR411-125" value="" style="verticalLabelPosition=top;verticalAlign=bottom;html=1;shape=mxgraph.infographic.cylinder;isoAngle=15;fillColor=#CCCCCC;strokeColor=none;fontStyle=1;fontColor=#12AAB5;fontSize=14;shadow=0;align=left;opacity=70;" vertex="1" parent="1">
          <mxGeometry x="817.23" y="-2499.75" width="60.57" height="50" as="geometry" />
        </mxCell>
        <mxCell id="NKPftJdkQbe8e6-rR411-126" value="&lt;font style=&quot;font-size: 25px;&quot;&gt;SDG 1&lt;/font&gt;" style="verticalLabelPosition=bottom;verticalAlign=top;html=1;shape=mxgraph.infographic.cylinder;isoAngle=15;fillColor=#5787a2;strokeColor=none;fontStyle=1;fontColor=#4d7d98;fontSize=14;shadow=0;" vertex="1" parent="1">
          <mxGeometry x="703.6600000000001" y="-2429.75" width="59.43" height="120" as="geometry" />
        </mxCell>
        <mxCell id="NKPftJdkQbe8e6-rR411-127" value="" style="verticalLabelPosition=top;verticalAlign=bottom;html=1;shape=mxgraph.infographic.cylinder;isoAngle=15;fillColor=#CCCCCC;strokeColor=none;fontStyle=1;fontColor=#12AAB5;fontSize=14;shadow=0;align=left;opacity=70;" vertex="1" parent="1">
          <mxGeometry x="703.6600000000001" y="-2499.75" width="60.57" height="90" as="geometry" />
        </mxCell>
        <mxCell id="NKPftJdkQbe8e6-rR411-128" value="&lt;font style=&quot;font-size: 25px;&quot;&gt;SDG 17&lt;/font&gt;" style="verticalLabelPosition=bottom;verticalAlign=top;html=1;shape=mxgraph.infographic.cylinder;isoAngle=15;fillColor=#12AAB5;strokeColor=none;fontStyle=1;fontColor=#12AAB5;fontSize=14;shadow=0;" vertex="1" parent="1">
          <mxGeometry x="1143.02" y="-2014.75" width="59.43" height="104" as="geometry" />
        </mxCell>
        <mxCell id="NKPftJdkQbe8e6-rR411-129" value="" style="verticalLabelPosition=top;verticalAlign=bottom;html=1;shape=mxgraph.infographic.cylinder;isoAngle=15;fillColor=#CCCCCC;strokeColor=none;fontStyle=1;fontColor=#12AAB5;fontSize=14;shadow=0;align=left;opacity=70;" vertex="1" parent="1">
          <mxGeometry x="1143.02" y="-2100.75" width="60.57" height="106" as="geometry" />
        </mxCell>
        <mxCell id="NKPftJdkQbe8e6-rR411-130" value="&lt;font style=&quot;font-size: 25px;&quot;&gt;...&lt;/font&gt;" style="verticalLabelPosition=bottom;verticalAlign=top;html=1;shape=mxgraph.infographic.cylinder;isoAngle=15;fillColor=#3d5060;strokeColor=none;fontStyle=1;fontColor=#4f5963;fontSize=14;shadow=0;" vertex="1" parent="1">
          <mxGeometry x="1023.02" y="-1972" width="59.43" height="60.25" as="geometry" />
        </mxCell>
        <mxCell id="NKPftJdkQbe8e6-rR411-131" value="" style="verticalLabelPosition=top;verticalAlign=bottom;html=1;shape=mxgraph.infographic.cylinder;isoAngle=15;fillColor=#CCCCCC;strokeColor=none;fontStyle=1;fontColor=#12AAB5;fontSize=14;shadow=0;align=left;opacity=70;" vertex="1" parent="1">
          <mxGeometry x="1023.02" y="-2101.75" width="60.57" height="149.75" as="geometry" />
        </mxCell>
        <mxCell id="NKPftJdkQbe8e6-rR411-132" value="&lt;font style=&quot;font-size: 25px;&quot;&gt;SDG 3&lt;/font&gt;" style="verticalLabelPosition=bottom;verticalAlign=top;html=1;shape=mxgraph.infographic.cylinder;isoAngle=15;fillColor=#945349;strokeColor=none;fontStyle=1;fontColor=#ad6c62;fontSize=14;shadow=0;" vertex="1" parent="1">
          <mxGeometry x="913.74" y="-2031.75" width="59.43" height="121" as="geometry" />
        </mxCell>
        <mxCell id="NKPftJdkQbe8e6-rR411-133" value="" style="verticalLabelPosition=top;verticalAlign=bottom;html=1;shape=mxgraph.infographic.cylinder;isoAngle=15;fillColor=#CCCCCC;strokeColor=none;fontStyle=1;fontColor=#12AAB5;fontSize=14;shadow=0;align=left;opacity=70;" vertex="1" parent="1">
          <mxGeometry x="913.74" y="-2100.75" width="60.57" height="89" as="geometry" />
        </mxCell>
        <mxCell id="NKPftJdkQbe8e6-rR411-134" value="&lt;font style=&quot;font-size: 25px;&quot;&gt;SDG 2&lt;/font&gt;" style="verticalLabelPosition=bottom;verticalAlign=top;html=1;shape=mxgraph.infographic.cylinder;isoAngle=15;fillColor=#ecb276;strokeColor=none;fontStyle=1;fontColor=#e3a96c;fontSize=25;shadow=0;" vertex="1" parent="1">
          <mxGeometry x="810.45" y="-2069.75" width="59.43" height="160" as="geometry" />
        </mxCell>
        <mxCell id="NKPftJdkQbe8e6-rR411-135" value="" style="verticalLabelPosition=top;verticalAlign=bottom;html=1;shape=mxgraph.infographic.cylinder;isoAngle=15;fillColor=#CCCCCC;strokeColor=none;fontStyle=1;fontColor=#12AAB5;fontSize=14;shadow=0;align=left;opacity=70;" vertex="1" parent="1">
          <mxGeometry x="810.45" y="-2099.75" width="60.57" height="50" as="geometry" />
        </mxCell>
        <mxCell id="NKPftJdkQbe8e6-rR411-136" value="&lt;font style=&quot;font-size: 25px;&quot;&gt;SDG 1&lt;/font&gt;" style="verticalLabelPosition=bottom;verticalAlign=top;html=1;shape=mxgraph.infographic.cylinder;isoAngle=15;fillColor=#5787a2;strokeColor=none;fontStyle=1;fontColor=#4d7d98;fontSize=14;shadow=0;" vertex="1" parent="1">
          <mxGeometry x="696.8800000000001" y="-2029.75" width="59.43" height="120" as="geometry" />
        </mxCell>
        <mxCell id="NKPftJdkQbe8e6-rR411-137" value="" style="verticalLabelPosition=top;verticalAlign=bottom;html=1;shape=mxgraph.infographic.cylinder;isoAngle=15;fillColor=#CCCCCC;strokeColor=none;fontStyle=1;fontColor=#12AAB5;fontSize=14;shadow=0;align=left;opacity=70;" vertex="1" parent="1">
          <mxGeometry x="696.8800000000001" y="-2099.75" width="60.57" height="90" as="geometry" />
        </mxCell>
        <mxCell id="NKPftJdkQbe8e6-rR411-138" value="&lt;span style=&quot;background-color: initial;&quot;&gt;Report 1&lt;/span&gt;" style="html=1;shape=mxgraph.infographic.ribbonSimple;notch1=20;notch2=20;fillColor=#10739E;strokeColor=none;align=center;verticalAlign=middle;fontColor=#ffffff;fontSize=25;fontStyle=1;" vertex="1" parent="1">
          <mxGeometry x="474.0599999999997" y="-1468" width="210" height="82.25" as="geometry" />
        </mxCell>
        <mxCell id="NKPftJdkQbe8e6-rR411-139" value="&lt;font style=&quot;font-size: 25px;&quot;&gt;SDG 17&lt;/font&gt;" style="verticalLabelPosition=bottom;verticalAlign=top;html=1;shape=mxgraph.infographic.cylinder;isoAngle=15;fillColor=#12AAB5;strokeColor=none;fontStyle=1;fontColor=#12AAB5;fontSize=14;shadow=0;" vertex="1" parent="1">
          <mxGeometry x="1151.6399999999999" y="-1453" width="59.43" height="104" as="geometry" />
        </mxCell>
        <mxCell id="NKPftJdkQbe8e6-rR411-140" value="" style="verticalLabelPosition=top;verticalAlign=bottom;html=1;shape=mxgraph.infographic.cylinder;isoAngle=15;fillColor=#CCCCCC;strokeColor=none;fontStyle=1;fontColor=#12AAB5;fontSize=14;shadow=0;align=left;opacity=70;" vertex="1" parent="1">
          <mxGeometry x="1151.6399999999999" y="-1539" width="60.57" height="106" as="geometry" />
        </mxCell>
        <mxCell id="NKPftJdkQbe8e6-rR411-141" value="&lt;font style=&quot;font-size: 25px;&quot;&gt;...&lt;/font&gt;" style="verticalLabelPosition=bottom;verticalAlign=top;html=1;shape=mxgraph.infographic.cylinder;isoAngle=15;fillColor=#3d5060;strokeColor=none;fontStyle=1;fontColor=#4f5963;fontSize=14;shadow=0;" vertex="1" parent="1">
          <mxGeometry x="1031.6399999999999" y="-1410.25" width="59.43" height="60.25" as="geometry" />
        </mxCell>
        <mxCell id="NKPftJdkQbe8e6-rR411-142" value="" style="verticalLabelPosition=top;verticalAlign=bottom;html=1;shape=mxgraph.infographic.cylinder;isoAngle=15;fillColor=#CCCCCC;strokeColor=none;fontStyle=1;fontColor=#12AAB5;fontSize=14;shadow=0;align=left;opacity=70;" vertex="1" parent="1">
          <mxGeometry x="1031.6399999999999" y="-1540" width="60.57" height="149.75" as="geometry" />
        </mxCell>
        <mxCell id="NKPftJdkQbe8e6-rR411-143" value="&lt;font style=&quot;font-size: 25px;&quot;&gt;SDG 3&lt;/font&gt;" style="verticalLabelPosition=bottom;verticalAlign=top;html=1;shape=mxgraph.infographic.cylinder;isoAngle=15;fillColor=#945349;strokeColor=none;fontStyle=1;fontColor=#ad6c62;fontSize=14;shadow=0;" vertex="1" parent="1">
          <mxGeometry x="922.3599999999999" y="-1470" width="59.43" height="121" as="geometry" />
        </mxCell>
        <mxCell id="NKPftJdkQbe8e6-rR411-144" value="" style="verticalLabelPosition=top;verticalAlign=bottom;html=1;shape=mxgraph.infographic.cylinder;isoAngle=15;fillColor=#CCCCCC;strokeColor=none;fontStyle=1;fontColor=#12AAB5;fontSize=14;shadow=0;align=left;opacity=70;" vertex="1" parent="1">
          <mxGeometry x="922.3599999999999" y="-1539" width="60.57" height="89" as="geometry" />
        </mxCell>
        <mxCell id="NKPftJdkQbe8e6-rR411-145" value="&lt;font style=&quot;font-size: 25px;&quot;&gt;SDG 2&lt;/font&gt;" style="verticalLabelPosition=bottom;verticalAlign=top;html=1;shape=mxgraph.infographic.cylinder;isoAngle=15;fillColor=#ecb276;strokeColor=none;fontStyle=1;fontColor=#e3a96c;fontSize=25;shadow=0;" vertex="1" parent="1">
          <mxGeometry x="819.0699999999999" y="-1508" width="59.43" height="160" as="geometry" />
        </mxCell>
        <mxCell id="NKPftJdkQbe8e6-rR411-146" value="" style="verticalLabelPosition=top;verticalAlign=bottom;html=1;shape=mxgraph.infographic.cylinder;isoAngle=15;fillColor=#CCCCCC;strokeColor=none;fontStyle=1;fontColor=#12AAB5;fontSize=14;shadow=0;align=left;opacity=70;" vertex="1" parent="1">
          <mxGeometry x="819.0699999999999" y="-1538" width="60.57" height="50" as="geometry" />
        </mxCell>
        <mxCell id="NKPftJdkQbe8e6-rR411-147" value="&lt;font style=&quot;font-size: 25px;&quot;&gt;SDG 1&lt;/font&gt;" style="verticalLabelPosition=bottom;verticalAlign=top;html=1;shape=mxgraph.infographic.cylinder;isoAngle=15;fillColor=#5787a2;strokeColor=none;fontStyle=1;fontColor=#4d7d98;fontSize=14;shadow=0;" vertex="1" parent="1">
          <mxGeometry x="705.5" y="-1468" width="59.43" height="120" as="geometry" />
        </mxCell>
        <mxCell id="NKPftJdkQbe8e6-rR411-148" value="" style="verticalLabelPosition=top;verticalAlign=bottom;html=1;shape=mxgraph.infographic.cylinder;isoAngle=15;fillColor=#CCCCCC;strokeColor=none;fontStyle=1;fontColor=#12AAB5;fontSize=14;shadow=0;align=left;opacity=70;" vertex="1" parent="1">
          <mxGeometry x="705.5" y="-1538" width="60.57" height="90" as="geometry" />
        </mxCell>
        <mxCell id="NKPftJdkQbe8e6-rR411-149" value="" style="verticalLabelPosition=bottom;verticalAlign=top;html=1;strokeWidth=2;shape=mxgraph.arrows2.arrow;dy=0.6;dx=40;notch=0;rotation=0;fillColor=#f5f5f5;strokeColor=#666666;fontColor=#333333;" vertex="1" parent="1">
          <mxGeometry x="207.21" y="-2930.25" width="157.14" height="110" as="geometry" />
        </mxCell>
        <mxCell id="NKPftJdkQbe8e6-rR411-150" value="&lt;span style=&quot;background-color: initial; font-size: 25px;&quot;&gt;SDG 11&lt;/span&gt;&lt;div style=&quot;font-size: 25px;&quot;&gt;&lt;span style=&quot;background-color: initial; font-size: 25px;&quot;&gt;SDG 16&lt;/span&gt;&lt;/div&gt;&lt;div style=&quot;font-size: 25px;&quot;&gt;&lt;span style=&quot;background-color: initial; font-size: 25px;&quot;&gt;SDG 17&lt;/span&gt;&lt;/div&gt;" style="html=1;shape=mxgraph.infographic.ribbonSimple;notch1=20;notch2=20;fillColor=#10739E;strokeColor=none;align=center;verticalAlign=middle;fontColor=#ffffff;fontSize=25;fontStyle=1;" vertex="1" parent="1">
          <mxGeometry x="549.7200000000001" y="-539.46" width="168" height="101.75" as="geometry" />
        </mxCell>
        <mxCell id="NKPftJdkQbe8e6-rR411-151" value="&lt;span style=&quot;background-color: initial; font-size: 25px;&quot;&gt;SDG 1&lt;/span&gt;&lt;div style=&quot;font-size: 25px;&quot;&gt;&lt;span style=&quot;background-color: initial; font-size: 25px;&quot;&gt;SDG 2&lt;/span&gt;&lt;/div&gt;&lt;div style=&quot;font-size: 25px;&quot;&gt;&lt;span style=&quot;background-color: initial; font-size: 25px;&quot;&gt;SDG 3&lt;/span&gt;&lt;/div&gt;" style="html=1;shape=mxgraph.infographic.ribbonSimple;notch1=20;notch2=20;fillColor=#10739E;strokeColor=none;align=center;verticalAlign=middle;fontColor=#ffffff;fontSize=25;fontStyle=1;" vertex="1" parent="1">
          <mxGeometry x="541.9999999999999" y="-258" width="168" height="101.75" as="geometry" />
        </mxCell>
        <mxCell id="NKPftJdkQbe8e6-rR411-152" value="&lt;span style=&quot;background-color: initial; font-size: 25px;&quot;&gt;SDG 8&lt;/span&gt;&lt;div style=&quot;font-size: 25px;&quot;&gt;&lt;span style=&quot;background-color: initial; font-size: 25px;&quot;&gt;SDG 9&lt;/span&gt;&lt;/div&gt;" style="html=1;shape=mxgraph.infographic.ribbonSimple;notch1=20;notch2=20;fillColor=#10739E;strokeColor=none;align=center;verticalAlign=middle;fontColor=#ffffff;fontSize=25;fontStyle=1;" vertex="1" parent="1">
          <mxGeometry x="946.5600000000001" y="-868.71" width="168" height="101.75" as="geometry" />
        </mxCell>
        <mxCell id="NKPftJdkQbe8e6-rR411-153" value="&lt;span style=&quot;background-color: initial; font-size: 25px;&quot;&gt;SDG 6&lt;/span&gt;&lt;div style=&quot;font-size: 25px;&quot;&gt;&lt;span style=&quot;background-color: initial; font-size: 25px;&quot;&gt;SDG 7&lt;/span&gt;&lt;/div&gt;&lt;div style=&quot;font-size: 25px;&quot;&gt;&lt;span style=&quot;background-color: initial; font-size: 25px;&quot;&gt;SDG 12&lt;/span&gt;&lt;/div&gt;&lt;div style=&quot;font-size: 25px;&quot;&gt;&lt;span style=&quot;background-color: initial; font-size: 25px;&quot;&gt;SDG 14&lt;/span&gt;&lt;/div&gt;" style="html=1;shape=mxgraph.infographic.ribbonSimple;notch1=20;notch2=20;fillColor=#10739E;strokeColor=none;align=center;verticalAlign=middle;fontColor=#ffffff;fontSize=25;fontStyle=1;" vertex="1" parent="1">
          <mxGeometry x="949.0100000000001" y="-558" width="168" height="131.75" as="geometry" />
        </mxCell>
        <mxCell id="NKPftJdkQbe8e6-rR411-154" value="&lt;span style=&quot;background-color: initial; font-size: 25px;&quot;&gt;SDG 13&lt;/span&gt;&lt;div style=&quot;font-size: 25px;&quot;&gt;&lt;span style=&quot;background-color: initial; font-size: 25px;&quot;&gt;SDG 15&lt;/span&gt;&lt;/div&gt;" style="html=1;shape=mxgraph.infographic.ribbonSimple;notch1=20;notch2=20;fillColor=#10739E;strokeColor=none;align=center;verticalAlign=middle;fontColor=#ffffff;fontSize=25;fontStyle=1;" vertex="1" parent="1">
          <mxGeometry x="950.15" y="-258" width="168" height="101.75" as="geometry" />
        </mxCell>
        <mxCell id="NKPftJdkQbe8e6-rR411-155" value="&lt;font style=&quot;font-size: 25px;&quot;&gt;Resources&lt;/font&gt;" style="verticalLabelPosition=bottom;verticalAlign=top;html=1;shape=mxgraph.infographic.cylinder;isoAngle=15;fillColor=#12AAB5;strokeColor=none;fontStyle=1;fontColor=#12AAB5;fontSize=14;shadow=0;" vertex="1" parent="1">
          <mxGeometry x="1177.8400000000001" y="-502" width="59.43" height="104" as="geometry" />
        </mxCell>
        <mxCell id="NKPftJdkQbe8e6-rR411-156" value="" style="verticalLabelPosition=top;verticalAlign=bottom;html=1;shape=mxgraph.infographic.cylinder;isoAngle=15;fillColor=#CCCCCC;strokeColor=none;fontStyle=1;fontColor=#12AAB5;fontSize=14;shadow=0;align=left;opacity=70;" vertex="1" parent="1">
          <mxGeometry x="1177.8400000000001" y="-588" width="60.57" height="106" as="geometry" />
        </mxCell>
        <mxCell id="NKPftJdkQbe8e6-rR411-157" value="&lt;font style=&quot;font-size: 25px;&quot;&gt;Economic and&amp;nbsp;&lt;/font&gt;&lt;div&gt;&lt;font style=&quot;font-size: 25px;&quot;&gt;Technological Development&lt;/font&gt;&lt;/div&gt;" style="verticalLabelPosition=bottom;verticalAlign=top;html=1;shape=mxgraph.infographic.cylinder;isoAngle=15;fillColor=#3d5060;strokeColor=none;fontStyle=1;fontColor=#4f5963;fontSize=14;shadow=0;" vertex="1" parent="1">
          <mxGeometry x="1181.23" y="-783.0900000000001" width="59.43" height="60.25" as="geometry" />
        </mxCell>
        <mxCell id="NKPftJdkQbe8e6-rR411-158" value="" style="verticalLabelPosition=top;verticalAlign=bottom;html=1;shape=mxgraph.infographic.cylinder;isoAngle=15;fillColor=#CCCCCC;strokeColor=none;fontStyle=1;fontColor=#12AAB5;fontSize=14;shadow=0;align=left;opacity=70;" vertex="1" parent="1">
          <mxGeometry x="1181.23" y="-912.8400000000001" width="60.57" height="149.75" as="geometry" />
        </mxCell>
        <mxCell id="NKPftJdkQbe8e6-rR411-159" value="&lt;font style=&quot;font-size: 25px;&quot;&gt;Life&lt;/font&gt;" style="verticalLabelPosition=bottom;verticalAlign=top;html=1;shape=mxgraph.infographic.cylinder;isoAngle=15;fillColor=#945349;strokeColor=none;fontStyle=1;fontColor=#ad6c62;fontSize=14;shadow=0;" vertex="1" parent="1">
          <mxGeometry x="738.9499999999999" y="-233.1199999999999" width="59.43" height="121" as="geometry" />
        </mxCell>
        <mxCell id="NKPftJdkQbe8e6-rR411-160" value="" style="verticalLabelPosition=top;verticalAlign=bottom;html=1;shape=mxgraph.infographic.cylinder;isoAngle=15;fillColor=#CCCCCC;strokeColor=none;fontStyle=1;fontColor=#12AAB5;fontSize=14;shadow=0;align=left;opacity=70;" vertex="1" parent="1">
          <mxGeometry x="738.9499999999999" y="-302.1199999999999" width="60.57" height="89" as="geometry" />
        </mxCell>
        <mxCell id="NKPftJdkQbe8e6-rR411-161" value="&lt;font style=&quot;font-size: 25px;&quot;&gt;Social development&lt;/font&gt;" style="verticalLabelPosition=bottom;verticalAlign=top;html=1;shape=mxgraph.infographic.cylinder;isoAngle=15;fillColor=#ecb276;strokeColor=none;fontStyle=1;fontColor=#e3a96c;fontSize=25;shadow=0;" vertex="1" parent="1">
          <mxGeometry x="738.9499999999999" y="-558" width="59.43" height="160" as="geometry" />
        </mxCell>
        <mxCell id="NKPftJdkQbe8e6-rR411-162" value="" style="verticalLabelPosition=top;verticalAlign=bottom;html=1;shape=mxgraph.infographic.cylinder;isoAngle=15;fillColor=#CCCCCC;strokeColor=none;fontStyle=1;fontColor=#12AAB5;fontSize=14;shadow=0;align=left;opacity=70;" vertex="1" parent="1">
          <mxGeometry x="738.9499999999999" y="-588" width="60.57" height="50" as="geometry" />
        </mxCell>
        <mxCell id="NKPftJdkQbe8e6-rR411-163" value="&lt;font style=&quot;font-size: 25px;&quot;&gt;Equity&lt;/font&gt;" style="verticalLabelPosition=bottom;verticalAlign=top;html=1;shape=mxgraph.infographic.cylinder;isoAngle=15;fillColor=#5787a2;strokeColor=none;fontStyle=1;fontColor=#4d7d98;fontSize=14;shadow=0;" vertex="1" parent="1">
          <mxGeometry x="735.5000000000001" y="-842.8400000000001" width="59.43" height="120" as="geometry" />
        </mxCell>
        <mxCell id="NKPftJdkQbe8e6-rR411-164" value="" style="verticalLabelPosition=top;verticalAlign=bottom;html=1;shape=mxgraph.infographic.cylinder;isoAngle=15;fillColor=#CCCCCC;strokeColor=none;fontStyle=1;fontColor=#12AAB5;fontSize=14;shadow=0;align=left;opacity=70;" vertex="1" parent="1">
          <mxGeometry x="735.5000000000001" y="-912.8400000000001" width="60.57" height="90" as="geometry" />
        </mxCell>
        <mxCell id="NKPftJdkQbe8e6-rR411-165" value="&lt;font style=&quot;font-size: 25px;&quot;&gt;Environments&lt;/font&gt;" style="verticalLabelPosition=bottom;verticalAlign=top;html=1;shape=mxgraph.infographic.cylinder;isoAngle=15;fillColor=#5e9c57;strokeColor=none;fontStyle=1;fontColor=#779b72;fontSize=14;shadow=0;" vertex="1" parent="1">
          <mxGeometry x="1176.7000000000003" y="-216.1199999999999" width="59.43" height="104" as="geometry" />
        </mxCell>
        <mxCell id="NKPftJdkQbe8e6-rR411-166" value="" style="verticalLabelPosition=top;verticalAlign=bottom;html=1;shape=mxgraph.infographic.cylinder;isoAngle=15;fillColor=#CCCCCC;strokeColor=none;fontStyle=1;fontColor=#12AAB5;fontSize=14;shadow=0;align=left;opacity=70;" vertex="1" parent="1">
          <mxGeometry x="1176.7000000000003" y="-302.1199999999999" width="60.57" height="106" as="geometry" />
        </mxCell>
        <mxCell id="NKPftJdkQbe8e6-rR411-171" value="" style="verticalLabelPosition=bottom;verticalAlign=top;html=1;strokeWidth=2;shape=mxgraph.arrows2.arrow;dy=0.6;dx=40;notch=0;rotation=90;fillColor=#f5f5f5;strokeColor=#666666;fontColor=#333333;" vertex="1" parent="1">
          <mxGeometry x="810.4499999999999" y="-1820" width="157.14" height="110" as="geometry" />
        </mxCell>
        <mxCell id="x328PwAZrwwHZPL1ipOy-94" value="Pointers" parent="0" />
        <mxCell id="x328PwAZrwwHZPL1ipOy-95" value="Shapes" style="" parent="0" />
      </root>
    </mxGraphModel>
  </diagram>
</mxfile>
